<svg xmlns="http://www.w3.org/2000/svg" width="1024" height="1024" viewBox="0 0 1024 1024">
<title>OutBrief Android foreground</title>
<defs>
 <linearGradient id="bg" x1="0" y1="0" x2="0" y2="1"><stop offset="0" stop-color="#D93A2B"/><stop offset="1" stop-color="#8A1519"/></linearGradient>
 <radialGradient id="glow" cx="0.5" cy="0.28" r="0.7"><stop offset="0" stop-color="#FFB36B" stop-opacity="0.45"/><stop offset="1" stop-color="#FFB36B" stop-opacity="0"/></radialGradient>
 <linearGradient id="paperL" x1="0" y1="0" x2="0" y2="1"><stop offset="0" stop-color="#FFF6DE"/><stop offset="1" stop-color="#F4E1B0"/></linearGradient>
 <linearGradient id="paperR" x1="0" y1="0" x2="0" y2="1"><stop offset="0" stop-color="#F1DCA6"/><stop offset="1" stop-color="#DDBF7E"/></linearGradient>
 <linearGradient id="ink" gradientUnits="userSpaceOnUse" x1="0" y1="300" x2="0" y2="720"><stop offset="0" stop-color="#C62F28"/><stop offset="1" stop-color="#961C1E"/></linearGradient>
 <linearGradient id="rim" x1="0" y1="0" x2="0" y2="1"><stop offset="0" stop-color="#ffffff" stop-opacity="0.35"/><stop offset="0.5" stop-color="#ffffff" stop-opacity="0"/></linearGradient>
 <linearGradient id="cover" gradientUnits="userSpaceOnUse" x1="0" y1="296" x2="0" y2="728"><stop offset="0" stop-color="#F2C45A"/><stop offset="1" stop-color="#B07A1E"/></linearGradient>
 <filter id="sh" x="-20%" y="-20%" width="140%" height="140%"><feDropShadow dx="0" dy="14" stdDeviation="16" flood-color="#3A0508" flood-opacity="0.5"/></filter>
 <filter id="ish" x="-10%" y="-10%" width="120%" height="130%"><feDropShadow dx="0" dy="10" stdDeviation="10" flood-color="#000" flood-opacity="0.3"/></filter>
</defs>
<g transform="translate(512 512) scale(0.74) translate(-512 -512)">
<g filter="url(#sh)"><polygon points="252,300 382,334 382,690 252,724" fill="url(#paperL)" stroke="#C99A3E" stroke-width="5" stroke-linejoin="round"/><polygon points="382,334 512,300 512,724 382,690" fill="url(#paperR)" stroke="#C99A3E" stroke-width="5" stroke-linejoin="round"/><polygon points="512,300 642,334 642,690 512,724" fill="url(#paperL)" stroke="#C99A3E" stroke-width="5" stroke-linejoin="round"/><polygon points="642,334 772,300 772,724 642,690" fill="url(#paperR)" stroke="#C99A3E" stroke-width="5" stroke-linejoin="round"/></g>
<line x1="295.3333333333333" y1="468" x2="295.3333333333333" y2="556" stroke="url(#ink)" stroke-width="26" stroke-linecap="round"/><line x1="338.66666666666663" y1="428" x2="338.66666666666663" y2="596" stroke="url(#ink)" stroke-width="26" stroke-linecap="round"/><line x1="425.3333333333333" y1="392" x2="425.3333333333333" y2="632" stroke="url(#ink)" stroke-width="26" stroke-linecap="round"/><line x1="468.66666666666663" y1="368" x2="468.66666666666663" y2="656" stroke="url(#ink)" stroke-width="26" stroke-linecap="round"/><line x1="555.3333333333334" y1="380" x2="555.3333333333334" y2="644" stroke="url(#ink)" stroke-width="26" stroke-linecap="round"/><line x1="598.6666666666666" y1="412" x2="598.6666666666666" y2="612" stroke="url(#ink)" stroke-width="26" stroke-linecap="round"/><line x1="685.3333333333334" y1="440" x2="685.3333333333334" y2="584" stroke="url(#ink)" stroke-width="26" stroke-linecap="round"/><line x1="728.6666666666666" y1="472" x2="728.6666666666666" y2="552" stroke="url(#ink)" stroke-width="26" stroke-linecap="round"/>
<line x1="252" y1="296" x2="252" y2="728" stroke="url(#cover)" stroke-width="26" stroke-linecap="round"/><line x1="772" y1="296" x2="772" y2="728" stroke="url(#cover)" stroke-width="26" stroke-linecap="round"/>
</g>
</svg>
